<svg xmlns="http://www.w3.org/2000/svg" viewBox="0 0 106 86" fill="none">
  <path d="M16.3492 0.432241C25.2326 -0.875818 31.2185 2.54465 36.7906 8.84852C49.2493 22.9435 62.365 36.4581 75.2348 50.1888C76.4768 51.5139 77.8705 52.6968 79.1949 53.9467C80.9298 52.9681 80.2402 51.4787 80.2457 50.318C80.3141 35.8255 80.4429 21.3306 80.2399 6.84076C80.1733 2.09145 81.7731 0.158574 86.5947 0.492299C90.905 0.790623 95.2547 0.616109 99.5838 0.515935C102.98 0.437337 104.404 2.0087 104.38 5.33918C104.269 20.4969 104.191 35.655 104.162 50.8131C104.144 60.3 104.095 69.7906 104.332 79.2727C104.45 84.009 103.124 86.6271 97.8428 85.8525C96.0483 85.5892 94.1268 85.5068 92.3606 85.847C81.6642 87.9072 74.9065 82.5841 68.2676 74.8698C54.5874 58.9738 40.0634 43.804 25.873 28.348C25.5639 28.0113 25.0906 27.8254 24.5741 27.4918C24.5741 43.529 24.5738 59.407 24.5745 75.285C24.5746 77.2841 24.485 79.2888 24.6041 81.2809C24.8128 84.7751 23.1644 85.999 19.8 85.8769C15.3082 85.7138 10.804 85.7783 6.30814 85.8778C3.49379 85.9401 1.99199 85.067 2.00003 81.921C2.06603 56.0995 2.06331 30.2779 2.01805 4.45636C2.01322 1.69611 3.19002 0.465368 5.86447 0.464742C9.19614 0.463949 12.5278 0.444464 16.3492 0.432241Z" fill="white"/>
</svg>
