<svg width="671" height="86" viewBox="0 0 671 86" fill="none" xmlns="http://www.w3.org/2000/svg">
<g clip-path="url(#clip0_76_19)">
<path d="M16.3492 0.432241C25.2326 -0.875818 31.2185 2.54465 36.7906 8.84852C49.2493 22.9435 62.365 36.4581 75.2348 50.1888C76.4768 51.5139 77.8705 52.6968 79.1949 53.9467C80.9298 52.9681 80.2402 51.4787 80.2457 50.318C80.3141 35.8255 80.4429 21.3306 80.2399 6.84076C80.1733 2.09145 81.7731 0.158574 86.5947 0.492299C90.905 0.790623 95.2547 0.616109 99.5838 0.515935C102.98 0.437337 104.404 2.0087 104.38 5.33918C104.269 20.4969 104.191 35.655 104.162 50.8131C104.144 60.3 104.095 69.7906 104.332 79.2727C104.45 84.009 103.124 86.6271 97.8428 85.8525C96.0483 85.5892 94.1268 85.5068 92.3606 85.847C81.6642 87.9072 74.9065 82.5841 68.2676 74.8698C54.5874 58.9738 40.0634 43.804 25.873 28.348C25.5639 28.0113 25.0906 27.8254 24.5741 27.4918C24.5741 43.529 24.5738 59.407 24.5745 75.285C24.5746 77.2841 24.485 79.2888 24.6041 81.2809C24.8128 84.7751 23.1644 85.999 19.8 85.8769C15.3082 85.7138 10.804 85.7783 6.30814 85.8778C3.49379 85.9401 1.99199 85.067 2.00003 81.921C2.06603 56.0995 2.06331 30.2779 2.01805 4.45636C2.01322 1.69611 3.19002 0.465368 5.86447 0.464742C9.19614 0.463949 12.5278 0.444464 16.3492 0.432241Z" fill="white"/>
<path d="M209.346 81.6499C204.175 84.7512 198.886 85.8787 193.276 85.8625C177.463 85.8169 161.649 85.8807 145.837 85.7832C129.515 85.6824 120.592 78.5924 118.825 62.5562C117.335 49.0342 117.063 35.2659 119.088 21.7443C121 8.9732 127.885 2.40489 140.61 1.26599C159.516 -0.426045 178.531 -0.36623 197.436 1.1129C211.744 2.23236 219.136 9.33203 220.209 23.5576C221.245 37.2733 221.585 51.1492 219.721 64.9018C218.78 71.8377 215.447 77.4157 209.346 81.6499ZM171.88 19.7803C165.224 19.7952 158.562 19.64 151.913 19.8721C145.114 20.1094 141.84 23.4216 141.684 30.1983C141.495 38.3479 141.537 46.5056 141.627 54.6581C141.705 61.6438 145.192 65.7709 152.177 65.9891C163.98 66.3578 175.807 66.317 187.615 66.0264C194.097 65.8668 197.885 61.8235 198.015 55.5488C198.188 47.232 198.234 38.9028 197.979 30.5899C197.765 23.6469 194.311 20.2631 187.354 19.8858C182.541 19.6248 177.705 19.8006 171.88 19.7803Z" fill="white"/>
<path d="M424.417 37.2942C428.032 39.8179 430.062 43.0361 430.795 46.9267C432.286 54.837 432.533 62.8855 430.767 70.6993C428.738 79.6734 421.254 85.3839 410.644 85.5798C388.829 85.9826 367.002 85.7351 345.179 85.8126C342.25 85.823 340.889 84.6763 340.975 81.6734C341.075 78.1783 341.19 74.6612 340.917 71.1836C340.595 67.0922 342.474 66.0569 346.214 66.0848C363.371 66.2128 380.53 66.1592 397.688 66.1557C399.685 66.1553 401.719 66.2892 403.669 65.9606C407.162 65.3718 409.26 63.5511 409.232 59.5488C409.206 55.6849 408.011 52.9918 403.976 52.3363C402.024 52.0192 400 51.9557 398.019 52.0391C385.033 52.5858 372.05 52.7475 359.077 51.7767C347.405 50.9033 341.284 44.9294 339.775 33.4533C338.98 27.4129 339.586 21.4304 340.444 15.5383C341.633 7.37146 348.166 2.03326 356.771 1.20003C361.912 0.702194 367.051 0.488785 372.222 0.50824C388.033 0.567749 403.844 0.456573 419.656 0.442459C426.224 0.436584 426.513 0.753967 426.49 7.10805C426.446 19.6937 426.446 19.7047 413.688 19.7186C399.029 19.7346 384.37 19.7338 369.71 19.7282C366.366 19.727 363.434 20.1351 362.36 24.1401C360.882 29.652 363.078 33.0783 368.823 33.1443C381.981 33.2957 395.143 33.2061 408.303 33.2659C413.857 33.2911 419.272 34.0157 424.417 37.2942Z" fill="white"/>
<path d="M668.093 85.6752C641.297 85.7754 614.97 85.7454 588.643 85.8938C584.608 85.9165 583.375 84.5788 582.957 80.478C582.001 71.1103 584.569 64.3966 592.507 58.3519C607.064 47.2664 620.614 34.857 634.577 22.9925C635.437 22.2615 636.245 21.4688 637.208 20.585C635.329 19.1716 633.45 19.7774 631.724 19.7698C617.727 19.708 603.729 19.6182 589.734 19.7886C585.589 19.839 584.129 18.3274 584.214 14.2404C584.562 -2.34674 582.13 0.545074 597.809 0.435577C619.802 0.281951 641.798 0.434433 663.793 0.455963C670.538 0.46257 670.142 0.644852 670.818 6.97684C671.734 15.5574 668.992 21.4477 662.062 26.9484C647.989 38.1199 634.74 50.332 621.169 62.1346C620.088 63.0746 618.515 63.6229 618.269 65.4693C620.309 66.5091 622.491 66.099 624.582 66.1064C638.412 66.1548 652.243 66.2285 666.071 66.0621C669.506 66.0207 670.986 66.9842 670.753 70.554C670.526 74.0393 670.722 77.5503 670.647 81.0481C670.608 82.8265 670.928 84.8535 668.093 85.6752Z" fill="white"/>
<path d="M324.012 70.879C320.36 79.8389 313.478 84.7121 304.729 85.2689C287.965 86.3358 271.075 86.8958 254.349 85.0096C242.431 83.6656 235.345 76.0037 234.278 64.2299C232.487 44.461 233.686 24.614 233.499 4.80133C233.469 1.65065 235.031 0.324512 238.152 0.404926C242.314 0.51218 246.486 0.573459 250.644 0.402728C254.61 0.239886 255.792 2.03601 255.759 5.81996C255.62 21.4792 255.684 37.1404 255.715 52.8008C255.734 62.2479 259.195 65.9448 268.574 66.0414C277.393 66.1322 286.223 66.501 295.037 65.536C303.207 64.6415 306.005 61.7388 306.035 53.2491C306.089 37.9223 306.021 22.595 306.02 7.26793C306.02 0.598468 306.118 0.516681 312.608 0.445697C327.692 0.280719 327.869 0.28432 327.56 15.4787C327.259 30.2924 328.386 45.1283 326.881 59.9204C326.508 63.5869 325.553 67.1151 324.012 70.879Z" fill="white"/>
<path d="M466.273 69.5152C455.855 46.7864 445.601 24.3959 435.064 1.38667C439.984 -0.375232 444.506 0.988537 448.794 0.351498C455.837 -0.694965 459.369 2.19938 462.14 8.8188C469.275 25.8664 477.333 42.528 485.043 59.3346C485.652 60.6621 486.418 61.9175 487.687 64.2778C491.719 55.496 495.386 47.5807 498.991 39.637C504.36 27.8051 509.682 15.9518 515.032 4.11149C515.719 2.59126 516.352 0.763668 518.276 0.650555C524.872 0.262981 531.478 0.0837066 537.723 0.659543C539.06 3.05473 537.851 4.47754 537.177 5.91357C525.356 31.094 513.464 56.241 501.7 81.4477C500.254 84.5441 498.492 86.0678 494.867 85.869C489.217 85.5592 483.536 85.6752 477.873 85.8195C474.956 85.8937 473.231 84.7372 472.096 82.1015C470.319 77.9719 468.334 73.9317 466.273 69.5152Z" fill="white"/>
<path d="M570.614 27.4942C570.627 45.2871 570.517 62.5815 570.733 79.8717C570.789 84.3625 569.51 86.2871 564.812 85.8807C560.85 85.5379 556.833 85.6956 552.847 85.8233C549.69 85.9245 548.27 84.6403 548.304 81.4453C548.578 55.6813 548.816 29.9168 549.027 4.15216C549.048 1.67241 550.126 0.445297 552.596 0.44014C557.251 0.43042 561.909 0.51236 566.561 0.383927C569.95 0.290375 570.785 2.04787 570.733 5.04724C570.605 12.3614 570.642 19.6784 570.614 27.4942Z" fill="white"/>
</g>
<defs>
<clipPath id="clip0_76_19">
<rect width="671" height="86" fill="white"/>
</clipPath>
</defs>
</svg>
