<svg width="200" height="200" viewBox="0 0 200 200" fill="none" xmlns="http://www.w3.org/2000/svg">
<rect width="200" height="200" fill="#F48120"/>
<g clip-path="url(#clip0_54_5)">
<path d="M57.3854 106.689L57.6351 105.828C57.9315 104.804 57.8218 103.859 57.3223 103.162C56.8556 102.522 56.0947 102.145 55.1636 102.101L37.5361 101.878C37.4808 101.878 37.4265 101.864 37.3779 101.837C37.3292 101.811 37.2876 101.774 37.2567 101.728C37.2257 101.683 37.2063 101.63 37.2001 101.575C37.1939 101.521 37.2011 101.465 37.2211 101.414C37.251 101.328 37.3057 101.253 37.3783 101.198C37.4509 101.142 37.5383 101.109 37.6295 101.103L55.4273 100.871C57.5277 100.776 59.8242 99.0715 60.6247 96.9913L61.6376 94.3539C61.6664 94.2799 61.6806 94.2011 61.6796 94.1218C61.6784 94.0797 61.6737 94.0377 61.6656 93.9964C61.113 91.5433 59.7697 89.337 57.8401 87.7134C55.9106 86.0899 53.5006 85.1381 50.9771 85.003C48.4536 84.8679 45.9548 85.5568 43.8612 86.9649C41.7676 88.373 40.194 90.4231 39.3799 92.8031C38.5156 92.164 37.4737 91.8068 36.3972 91.7803C35.3207 91.7538 34.2624 92.0593 33.3674 92.6551C32.4724 93.2508 31.7848 94.1075 31.3987 95.1075C31.0127 96.1075 30.9473 97.2019 31.2115 98.2404C30.1627 98.2674 29.1317 98.5157 28.1868 98.9689C27.2418 99.4221 26.4044 100.07 25.7301 100.869C25.0557 101.669 24.5598 102.602 24.2752 103.606C23.9907 104.611 23.9239 105.664 24.0793 106.696C24.0905 106.777 24.1309 106.852 24.1931 106.906C24.2553 106.96 24.335 106.99 24.4177 106.991H56.9723C57.0647 106.992 57.1549 106.963 57.2294 106.908C57.3039 106.854 57.3586 106.777 57.3854 106.689Z" fill="white"/>
<path d="M63.2597 94.5536C63.1041 94.5536 62.9407 94.5582 62.7695 94.5675C62.7439 94.5682 62.7185 94.5738 62.6949 94.5838C62.6522 94.5978 62.6137 94.6221 62.5828 94.6545C62.5518 94.6869 62.5294 94.7264 62.5175 94.7695L61.8173 97.1515C61.5186 98.1754 61.6283 99.1203 62.1301 99.8168C62.3836 100.146 62.71 100.413 63.0839 100.597C63.4579 100.781 63.8694 100.877 64.2865 100.878L68.0463 101.11C68.0989 101.112 68.1504 101.125 68.1966 101.15C68.2428 101.175 68.2825 101.211 68.3124 101.254C68.3441 101.3 68.3643 101.353 68.3712 101.408C68.3781 101.463 68.3715 101.52 68.3521 101.572C68.3221 101.658 68.2674 101.733 68.1948 101.789C68.1222 101.844 68.0349 101.877 67.9436 101.883L64.0392 102.115C61.9177 102.213 59.6329 103.914 58.8324 105.992L58.55 106.726C58.5382 106.757 58.5338 106.79 58.5373 106.822C58.5407 106.855 58.5519 106.887 58.5699 106.914C58.5878 106.942 58.6121 106.965 58.6407 106.981C58.6693 106.998 58.7014 107.007 58.7344 107.009H72.1842C72.2662 107.011 72.3464 106.985 72.4117 106.936C72.477 106.887 72.5235 106.817 72.5436 106.738C72.9446 105.312 73.0087 103.814 72.731 102.36C72.4532 100.906 71.8412 99.5352 70.9427 98.3554C70.0442 97.1756 68.8836 96.2186 67.5515 95.5591C66.2195 94.8995 64.7522 94.5554 63.2643 94.5536H63.2597Z" fill="white"/>
<path d="M87.7205 98.851H89.9446V104.901H93.8351V106.84H87.7205V98.851Z" fill="white"/>
<path d="M96.1411 102.877V102.856C96.1411 100.562 98.0082 98.7001 100.477 98.7001C102.947 98.7001 104.79 100.539 104.79 102.833V102.856C104.79 105.15 102.923 107.009 100.454 107.009C97.9848 107.009 96.1411 105.164 96.1411 102.877ZM102.519 102.877V102.856C102.519 101.695 101.682 100.699 100.454 100.699C99.2264 100.699 98.4236 101.679 98.4236 102.833V102.856C98.4236 104.017 99.2614 105.013 100.477 105.013C101.693 105.013 102.519 104.031 102.519 102.877Z" fill="white"/>
<path d="M107.514 103.341V98.851H109.775V103.29C109.775 104.451 110.359 104.992 111.255 104.992C112.151 104.992 112.734 104.467 112.734 103.348V98.851H114.994V103.278C114.994 105.858 113.514 106.993 111.231 106.993C108.949 106.993 107.514 105.832 107.514 103.341Z" fill="white"/>
<path d="M118.401 98.851H121.498C124.366 98.851 126.03 100.495 126.03 102.798V102.821C126.03 105.126 124.343 106.837 121.454 106.837H118.401V98.851ZM121.533 104.887C122.863 104.887 123.748 104.156 123.748 102.865V102.844C123.748 101.565 122.863 100.822 121.533 100.822H120.621V104.878L121.533 104.887Z" fill="white"/>
<path d="M129.265 98.851H135.688V100.792H131.492V102.15H135.289V103.986H131.492V106.84H129.265V98.851Z" fill="white"/>
<path d="M138.787 98.851H141.011V104.901H144.902V106.84H138.787V98.851Z" fill="white"/>
<path d="M150.727 98.7953H152.872L156.282 106.84H153.896L153.311 105.414H150.211L149.639 106.84H147.306L150.727 98.7953ZM152.676 103.689L151.782 101.419L150.867 103.689H152.676Z" fill="white"/>
<path d="M159.147 98.851H162.945C164.175 98.851 165.022 99.1713 165.561 99.7193C165.802 99.9629 165.99 100.254 166.113 100.574C166.235 100.893 166.29 101.235 166.273 101.577V101.6C166.291 102.13 166.141 102.652 165.845 103.092C165.548 103.532 165.12 103.869 164.62 104.054L166.536 106.84H163.969L162.349 104.421H161.374V106.84H159.147V98.851ZM162.842 102.686C163.6 102.686 164.037 102.32 164.037 101.739V101.716C164.037 101.087 163.57 100.769 162.83 100.769H161.374V102.686H162.842Z" fill="white"/>
<path d="M169.484 98.851H175.944V100.734H171.687V101.943H175.543V103.689H171.687V104.957H176V106.84H169.484V98.851Z" fill="white"/>
<path d="M82.8474 103.805C82.6953 104.164 82.4391 104.47 82.1115 104.683C81.784 104.897 81.3999 105.008 81.0084 105.003C79.7901 105.003 78.9546 103.998 78.9546 102.847V102.823C78.9546 101.663 79.7691 100.687 80.985 100.687C81.402 100.685 81.8094 100.811 82.1513 101.048C82.4932 101.286 82.7527 101.623 82.8941 102.013H85.2279C84.8639 100.112 83.1858 98.6978 81.0084 98.6978C78.5298 98.6978 76.6721 100.555 76.6721 102.854V102.877C76.6721 105.171 78.5065 107.009 80.985 107.009C83.1042 107.009 84.7612 105.644 85.1976 103.815L82.8474 103.805Z" fill="white"/>
</g>
<defs>
<clipPath id="clip0_54_5">
<rect width="152" height="22" fill="white" transform="translate(24 85)"/>
</clipPath>
</defs>
</svg>
