<svg width="200" height="200" viewBox="0 0 200 200" fill="none" xmlns="http://www.w3.org/2000/svg">
<rect width="200" height="200" fill="white"/>
<mask id="mask0_54_21" style="mask-type:luminance" maskUnits="userSpaceOnUse" x="20" y="88" width="23" height="23">
<path d="M20 88H42.8777V111H20V88Z" fill="white"/>
</mask>
<g mask="url(#mask0_54_21)">
<path d="M26.3376 105.553L23.6381 108.268C23.538 108.368 23.4026 108.424 23.2614 108.424C23.1203 108.424 22.9848 108.368 22.8848 108.268L22.7178 108.1C22.6183 107.999 22.5625 107.863 22.5625 107.721C22.5625 107.58 22.6183 107.443 22.7178 107.343L25.4174 104.628C25.5174 104.528 25.653 104.472 25.7943 104.472C25.9356 104.472 26.0712 104.528 26.1712 104.628L26.3376 104.796C26.3872 104.845 26.4265 104.904 26.4533 104.969C26.4801 105.034 26.4939 105.104 26.4939 105.174C26.4939 105.245 26.4801 105.314 26.4533 105.379C26.4265 105.444 26.3872 105.503 26.3376 105.553Z" fill="#FBBC04"/>
<path d="M33.5835 106.687H37.0392C37.493 106.688 37.9423 106.598 38.3616 106.423C38.7809 106.249 39.1618 105.993 39.4827 105.67C39.8035 105.347 40.058 104.964 40.2316 104.543C40.4052 104.121 40.4944 103.67 40.4943 103.213V93.8696C40.4944 93.4134 40.405 92.9617 40.2314 92.5402C40.0578 92.1187 39.8033 91.7358 39.4825 91.4132C39.1616 91.0906 38.7807 90.8348 38.3615 90.6603C37.9422 90.4857 37.4929 90.3959 37.0392 90.396C36.5854 90.3958 36.136 90.4856 35.7167 90.6601C35.2974 90.8346 34.9164 91.0904 34.5955 91.413C34.2746 91.7356 34.02 92.1186 33.8464 92.5401C33.6728 92.9616 33.5834 93.4133 33.5835 93.8696V106.687Z" fill="#4285F4"/>
<path d="M27.8641 106.687C28.318 106.688 28.7674 106.598 29.1867 106.423C29.6061 106.249 29.9871 105.993 30.308 105.67C30.6289 105.348 30.8834 104.965 31.0571 104.543C31.2307 104.121 31.3199 103.67 31.3198 103.213C31.3199 102.757 31.2305 102.305 31.0569 101.884C30.8832 101.462 30.6287 101.079 30.3078 100.757C29.9869 100.434 29.6059 100.178 29.1866 100.004C28.7673 99.8293 28.3179 99.7396 27.8641 99.7397C27.4103 99.7396 26.9609 99.8293 26.5416 100.004C26.1224 100.178 25.7414 100.434 25.4205 100.757C25.0995 101.079 24.845 101.462 24.6714 101.884C24.4977 102.305 24.4084 102.757 24.4084 103.213C24.4083 103.67 24.4976 104.121 24.6712 104.543C24.8448 104.965 25.0993 105.348 25.4203 105.67C25.7412 105.993 26.1222 106.249 26.5415 106.423C26.9608 106.598 27.4103 106.688 27.8641 106.687Z" fill="#FBBC04"/>
<path d="M35.9972 106.687H32.6302C32.1764 106.688 31.727 106.598 31.3077 106.423C30.8885 106.249 30.5075 105.993 30.1867 105.67C29.8658 105.347 29.6113 104.964 29.4377 104.543C29.2642 104.121 29.1749 103.67 29.175 103.213V98.6617C29.1749 98.2054 29.2642 97.7536 29.4377 97.3321C29.6113 96.9106 29.8658 96.5275 30.1867 96.2049C30.5075 95.8823 30.8885 95.6264 31.3077 95.4518C31.727 95.2772 32.1764 95.1874 32.6302 95.1875C33.084 95.1873 33.5334 95.2771 33.9528 95.4516C34.3721 95.6262 34.7531 95.8821 35.074 96.2047C35.3949 96.5274 35.6495 96.9104 35.8231 97.332C35.9967 97.7535 36.086 98.2054 36.0858 98.6617V106.599C36.0858 106.622 36.0766 106.645 36.06 106.662C36.0435 106.678 36.0211 106.687 35.9978 106.687H35.9972Z" fill="#34A853"/>
<path d="M36.0857 106.599V98.6617C36.0857 97.9075 35.8415 97.1738 35.3901 96.5714C34.9387 95.969 34.3046 95.5307 33.5835 95.3226V106.688H35.9971C36.0087 106.688 36.0202 106.685 36.031 106.681C36.0417 106.677 36.0515 106.67 36.0597 106.662C36.068 106.654 36.0745 106.644 36.079 106.633C36.0834 106.622 36.0857 106.611 36.0857 106.599Z" fill="#1967D2"/>
<path d="M31.3198 103.281C31.3199 102.591 31.116 101.918 30.7341 101.345C30.3522 100.773 29.8095 100.328 29.175 100.066V103.281C29.175 104.27 29.5868 105.163 30.2474 105.795C30.5866 105.471 30.8567 105.081 31.041 104.649C31.2254 104.217 31.3203 103.751 31.3198 103.281Z" fill="#EA4335"/>
</g>
<path d="M98.327 102.043C98.327 102.85 98.0324 103.5 97.4445 103.99C96.8473 104.471 96.1227 104.711 95.2699 104.711C94.511 104.711 93.8418 104.488 93.2618 104.042C92.6819 103.597 92.2815 102.988 92.0596 102.216L93.1852 101.753C93.2618 102.028 93.3682 102.277 93.5049 102.499C93.641 102.722 93.8012 102.913 93.9848 103.071C94.1678 103.23 94.3703 103.354 94.5922 103.444C94.8141 103.534 95.0486 103.58 95.2957 103.58C95.8327 103.58 96.272 103.44 96.6134 103.162C96.9543 102.883 97.1247 102.512 97.1247 102.05C97.1247 101.664 96.984 101.334 96.7026 101.059C96.4384 100.794 95.9437 100.536 95.219 100.288C94.4858 100.022 94.0294 99.8421 93.8504 99.7472C92.8786 99.2504 92.3925 98.5179 92.3925 97.549C92.3925 96.8716 92.6613 96.2932 93.1983 95.8125C93.744 95.3329 94.4132 95.0926 95.2064 95.0926C95.9053 95.0926 96.511 95.2726 97.0224 95.6331C97.5342 95.9844 97.8751 96.426 98.0456 96.9573L96.9457 97.4202C96.8423 97.0758 96.6288 96.7752 96.3383 96.5652C96.0352 96.338 95.6669 96.2248 95.2316 96.2248C94.7712 96.2248 94.3834 96.353 94.0677 96.6089C93.7526 96.8481 93.5947 97.1591 93.5947 97.5432C93.5947 97.8595 93.7182 98.1326 93.9659 98.3626C94.2381 98.5932 94.8307 98.8663 95.7435 99.182C96.6729 99.5 97.3358 99.8892 97.7321 100.349C98.1291 100.809 98.327 101.373 98.327 102.043ZM102.151 104.711C101.23 104.711 100.471 104.394 99.8741 103.759C99.2775 103.125 98.979 102.324 98.979 101.355C98.979 100.386 99.2689 99.5954 99.8489 98.9572C100.428 98.3183 101.17 97.9992 102.074 97.9992C102.978 97.9992 103.743 98.3011 104.293 98.9054C104.844 99.5092 105.118 100.356 105.118 101.445L105.106 101.573H100.181C100.198 102.19 100.403 102.688 100.795 103.065C100.981 103.248 101.201 103.393 101.442 103.49C101.684 103.587 101.942 103.635 102.202 103.631C102.952 103.631 103.541 103.254 103.967 102.499L105.016 103.013C104.748 103.53 104.343 103.962 103.846 104.261C103.347 104.561 102.782 104.711 102.151 104.711ZM100.271 100.596H103.865C103.853 100.388 103.799 100.186 103.708 99.999C103.617 99.8125 103.49 99.646 103.334 99.5092C103.015 99.2222 102.586 99.0791 102.049 99.0791C101.605 99.0791 101.223 99.2159 100.904 99.4902C100.584 99.7645 100.373 100.133 100.271 100.596ZM108.307 97.9986C109.176 97.9986 109.862 98.2321 110.366 98.6996C110.869 99.167 111.12 99.8076 111.12 100.622V104.505H109.995V103.631H109.944C109.458 104.351 108.81 104.711 108 104.711C107.309 104.711 106.731 104.505 106.267 104.094C105.802 103.682 105.569 103.168 105.569 102.55C105.569 101.899 105.814 101.38 106.304 100.994C106.795 100.609 107.449 100.416 108.268 100.416C108.967 100.416 109.543 100.545 109.995 100.802V100.532C109.995 100.12 109.833 99.7708 109.508 99.4839C109.184 99.1964 108.805 99.0526 108.37 99.0526C107.714 99.0526 107.194 99.3315 106.81 99.8887L105.774 99.2332C106.345 98.4103 107.19 97.9986 108.307 97.9986ZM106.785 102.576C106.785 102.885 106.915 103.142 107.175 103.348C107.435 103.554 107.739 103.657 108.089 103.657C108.584 103.657 109.025 103.473 109.413 103.103C109.801 102.735 109.995 102.302 109.995 101.805C109.628 101.514 109.117 101.368 108.46 101.368C107.982 101.368 107.584 101.483 107.264 101.715C106.944 101.946 106.784 102.234 106.784 102.576H106.785ZM113.416 104.505H112.239V98.2045H113.365V99.2332H113.416C113.535 98.8985 113.781 98.6139 114.151 98.3781C114.523 98.1424 114.887 98.0245 115.245 98.0245C115.603 98.0245 115.876 98.0763 116.115 98.1786L115.757 99.3229C115.612 99.2631 115.381 99.2332 115.066 99.2332C114.623 99.2332 114.237 99.4131 113.908 99.7737C113.588 100.113 113.412 100.565 113.416 101.033V104.505ZM119.271 104.711C118.342 104.711 117.57 104.394 116.956 103.759C116.351 103.108 116.048 102.306 116.048 101.355C116.048 100.403 116.351 99.5845 116.956 98.9503C117.57 98.316 118.342 97.9986 119.271 97.9986C119.911 97.9986 120.469 98.1596 120.947 98.4811C121.424 98.8025 121.782 99.2458 122.021 99.8116L120.947 100.262C120.614 99.4729 120.03 99.0785 119.195 99.0785C118.657 99.0785 118.192 99.297 117.8 99.7346C117.417 100.172 117.225 100.712 117.225 101.355C117.225 101.998 117.417 102.538 117.8 102.975C118.192 103.412 118.657 103.63 119.195 103.63C120.056 103.63 120.661 103.236 121.011 102.447L122.06 102.898C121.829 103.463 121.469 103.907 120.979 104.228C120.489 104.55 119.919 104.711 119.271 104.711ZM122.778 95.2984H123.955V98.2045L123.904 99.0785H123.955C124.134 98.7703 124.409 98.5133 124.78 98.3074C125.133 98.1064 125.532 98 125.937 97.9986C126.704 97.9986 127.295 98.2194 127.709 98.661C128.122 99.1026 128.329 99.7305 128.329 100.545V104.505H127.152V100.776C127.152 99.6449 126.654 99.0791 125.656 99.0791C125.178 99.0791 124.775 99.2786 124.447 99.6771C124.119 100.076 123.955 100.541 123.955 101.073V104.505H122.778V95.2984ZM137.039 104.711C135.683 104.711 134.549 104.252 133.636 103.335C132.733 102.418 132.281 101.273 132.281 99.9019C132.281 98.5299 132.733 97.3903 133.636 96.4812C134.54 95.5555 135.674 95.0926 137.039 95.0926C138.403 95.0926 139.541 95.594 140.402 96.5968L139.558 97.4202C138.902 96.6227 138.062 96.2242 137.039 96.2242C136.016 96.2242 135.175 96.5669 134.494 97.2529C133.82 97.9302 133.483 98.8134 133.483 99.9019C133.483 100.99 133.82 101.874 134.494 102.55C135.175 103.236 136.024 103.58 137.039 103.58C138.104 103.58 139.03 103.129 139.814 102.229L140.671 103.065C140.237 103.587 139.69 104.003 139.072 104.28C138.433 104.569 137.74 104.715 137.039 104.711ZM141.125 101.355C141.125 100.386 141.427 99.5845 142.033 98.9503C142.647 98.316 143.418 97.9986 144.348 97.9986C145.278 97.9986 146.045 98.316 146.65 98.9503C147.264 99.5845 147.571 100.386 147.571 101.355C147.571 102.323 147.264 103.133 146.65 103.759C146.045 104.394 145.277 104.711 144.348 104.711C143.419 104.711 142.647 104.394 142.033 103.759C141.427 103.125 141.125 102.324 141.125 101.355ZM142.302 101.355C142.302 102.032 142.497 102.581 142.89 103.001C143.282 103.42 143.768 103.631 144.348 103.631C144.928 103.631 145.414 103.421 145.806 103.001C146.198 102.581 146.395 102.032 146.395 101.355C146.395 100.678 146.198 100.142 145.806 99.7219C145.405 99.293 144.919 99.0785 144.348 99.0785C143.777 99.0785 143.291 99.293 142.89 99.7219C142.497 100.142 142.302 100.686 142.302 101.355ZM148.406 98.2045H149.532V99.0785H149.583C149.762 98.7703 150.037 98.5133 150.408 98.3074C150.761 98.1064 151.16 98 151.566 97.9986C152.333 97.9986 152.923 98.2194 153.337 98.661C153.75 99.1026 153.958 99.7305 153.958 100.545V104.505H152.78V100.622C152.755 99.5931 152.239 99.0785 151.233 99.0785C150.764 99.0785 150.371 99.2694 150.056 99.6506C149.741 100.032 149.583 100.489 149.583 101.02V104.505H148.406V98.2045ZM159.851 102.756C159.851 103.305 159.612 103.768 159.135 104.145C158.657 104.522 158.056 104.711 157.331 104.711C156.7 104.711 156.146 104.546 155.669 104.216C155.201 103.899 154.843 103.443 154.646 102.911L155.694 102.461C155.848 102.838 156.071 103.131 156.365 103.342C156.646 103.547 156.984 103.657 157.331 103.656C157.707 103.656 158.02 103.576 158.271 103.412C158.523 103.25 158.649 103.056 158.649 102.833C158.649 102.431 158.341 102.135 157.728 101.946L156.654 101.676C155.434 101.368 154.825 100.776 154.825 99.9019C154.825 99.3275 155.057 98.8669 155.522 98.5196C155.986 98.1723 156.581 97.9992 157.306 97.9992C157.86 97.9992 158.361 98.1315 158.809 98.3977C159.257 98.6633 159.57 99.0187 159.748 99.4649L158.7 99.9019C158.58 99.6352 158.375 99.4161 158.118 99.2786C157.842 99.1265 157.531 99.0489 157.216 99.0532C156.909 99.0532 156.635 99.1302 156.391 99.2849C156.148 99.439 156.027 99.6276 156.027 99.8507C156.027 100.211 156.364 100.468 157.037 100.622L157.984 100.866C159.229 101.175 159.851 101.805 159.851 102.757L159.851 102.756ZM160.293 101.355C160.293 100.386 160.595 99.5845 161.201 98.9503C161.815 98.316 162.586 97.9986 163.516 97.9986C164.446 97.9986 165.213 98.316 165.818 98.9503C166.432 99.5845 166.739 100.386 166.739 101.355C166.739 102.323 166.432 103.133 165.818 103.759C165.213 104.394 164.445 104.711 163.516 104.711C162.587 104.711 161.815 104.394 161.201 103.759C160.595 103.125 160.293 102.324 160.293 101.355ZM161.47 101.355C161.47 102.032 161.666 102.581 162.058 103.001C162.45 103.42 162.936 103.631 163.516 103.631C164.096 103.631 164.582 103.421 164.974 103.001C165.366 102.581 165.563 102.032 165.563 101.355C165.563 100.678 165.366 100.142 164.974 99.7219C164.573 99.293 164.087 99.0785 163.516 99.0785C162.945 99.0785 162.459 99.293 162.058 99.7219C161.666 100.142 161.47 100.686 161.47 101.355ZM168.767 95.2984V104.505H167.59V95.2984H168.767ZM172.789 104.711C171.868 104.711 171.109 104.394 170.512 103.759C169.915 103.125 169.617 102.324 169.617 101.355C169.617 100.386 169.907 99.5954 170.487 98.9572C171.067 98.3183 171.808 97.9992 172.712 97.9992C173.616 97.9992 174.382 98.3011 174.931 98.9054C175.481 99.5092 175.756 100.356 175.756 101.445L175.743 101.573H170.82C170.836 102.19 171.041 102.688 171.433 103.065C171.619 103.248 171.839 103.393 172.08 103.49C172.322 103.587 172.58 103.635 172.84 103.631C173.59 103.631 174.179 103.254 174.605 102.499L175.654 103.013C175.387 103.53 174.982 103.962 174.484 104.261C173.985 104.561 173.42 104.711 172.789 104.711ZM170.909 100.596H174.503C174.49 100.388 174.437 100.186 174.346 99.999C174.255 99.8125 174.128 99.646 173.972 99.5092C173.652 99.2222 173.224 99.0791 172.686 99.0791C172.243 99.0791 171.862 99.2159 171.542 99.4902C171.222 99.7645 171.011 100.133 170.909 100.596ZM52.9307 100.467V99.0434H57.6704C57.7185 99.2947 57.7471 99.5931 57.7471 99.9163C57.7471 100.984 57.4565 102.306 56.5208 103.247C55.6114 104.2 54.4481 104.708 52.9061 104.708C50.0493 104.708 47.6477 102.37 47.6477 99.4965C47.6477 96.6244 50.0499 94.2853 52.9061 94.2853C54.4858 94.2853 55.6114 94.908 56.4579 95.7216L55.4593 96.7262C54.8525 96.154 54.0312 95.709 52.9061 95.709C50.8203 95.709 49.1897 97.3995 49.1897 99.4971C49.1897 101.595 50.8203 103.285 52.9061 103.285C54.2588 103.285 55.0298 102.739 55.5228 102.243C55.9243 101.839 56.1885 101.259 56.2915 100.468H52.9307V100.467ZM64.9696 101.353C64.9696 103.285 63.4653 104.709 61.6203 104.709C59.7746 104.709 58.2704 103.285 58.2704 101.353C58.2704 99.4206 59.7746 97.9969 61.6203 97.9969C63.4653 97.9969 64.9696 99.408 64.9696 101.353ZM63.5037 101.353C63.5037 100.146 62.6315 99.3194 61.6203 99.3194C60.6091 99.3194 59.7369 100.145 59.7369 101.353C59.7369 102.561 60.6091 103.386 61.6203 103.386C62.632 103.386 63.5037 102.548 63.5037 101.353ZM72.2773 101.353C72.2773 103.285 70.7731 104.709 68.9274 104.709C67.0817 104.709 65.5775 103.285 65.5775 101.353C65.5775 99.4206 67.0817 97.9969 68.9274 97.9969C70.7731 97.9969 72.2773 99.408 72.2773 101.353ZM70.8108 101.353C70.8108 100.146 69.9392 99.3194 68.928 99.3194C67.9168 99.3194 67.044 100.145 67.044 101.353C67.044 102.561 67.9162 103.386 68.928 103.386C69.9392 103.386 70.8108 102.548 70.8108 101.353ZM79.2813 98.2005V104.225C79.2813 106.704 77.828 107.721 76.1087 107.721C74.4901 107.721 73.5178 106.628 73.1506 105.738L74.4272 105.204C74.6548 105.75 75.2108 106.399 76.1087 106.399C77.2085 106.399 77.8909 105.712 77.8909 104.429V103.946H77.8405C77.5117 104.352 76.8797 104.708 76.0835 104.708C74.4146 104.708 72.8852 103.247 72.8852 101.365C72.8852 99.4839 74.4146 97.9969 76.0835 97.9969C76.8797 97.9969 77.5117 98.3528 77.8405 98.7467H77.8909V98.2005H79.2813ZM77.9921 101.365C77.9921 100.183 77.2086 99.3188 76.2094 99.3188C75.2108 99.3188 74.3517 100.183 74.3517 101.366C74.3517 102.547 75.1982 103.386 76.2094 103.386C77.2211 103.386 77.9921 102.535 77.9921 101.365ZM81.7646 94.6746V104.505H80.2988V94.6746H81.7646ZM87.4269 102.458L88.5645 103.221C88.1978 103.768 87.3131 104.708 85.7837 104.708C83.8877 104.708 82.4716 103.233 82.4716 101.353C82.4716 99.3568 83.9003 97.9963 85.619 97.9963C87.3382 97.9963 88.1978 99.3821 88.4758 100.132L88.6274 100.513L84.1651 102.369C84.5065 103.043 85.0379 103.386 85.7831 103.386C86.5289 103.386 87.0477 103.017 87.4269 102.458ZM83.9254 101.251L86.9081 100.005C86.744 99.5856 86.251 99.2935 85.6699 99.2935C84.9241 99.2935 83.8871 99.9542 83.9254 101.251Z" fill="#5F6368"/>
</svg>
